<?xml version="1.0" encoding="utf-8"?>
<svg version="1.1" xmlns:xlink="http://www.w3.org/1999/xlink" width="24px" height="22px" xmlns="http://www.w3.org/2000/svg">
  <g transform="matrix(1 0 0 1 -435 -58 )">
    <path d="M 23.703125 17.9265625  C 23.9010416666667 18.1442708333333  24 18.4020833333333  24 18.7  L 24 20.9  C 24 21.1979166666667  23.9010416666667 21.4557291666667  23.703125 21.6734375  C 23.5052083333333 21.8911458333333  23.2708333333333 22  23 22  L 1 22  C 0.729166666666667 22  0.494791666666667 21.8911458333333  0.296875 21.6734375  C 0.0989583333333333 21.4557291666667  0 21.1979166666667  0 20.9  L 0 18.7  C 0 18.4020833333333  0.0989583333333333 18.1442708333333  0.296875 17.9265625  C 0.494791666666667 17.7088541666667  0.729166666666667 17.6  1 17.6  L 23 17.6  C 23.2708333333333 17.6  23.5052083333333 17.7088541666667  23.703125 17.9265625  Z M 23.703125 9.1265625  C 23.9010416666667 9.34427083333333  24 9.60208333333333  24 9.9  L 24 12.1  C 24 12.3979166666667  23.9010416666667 12.6557291666667  23.703125 12.8734375  C 23.5052083333333 13.0911458333333  23.2708333333333 13.2  23 13  L 1 13  C 0.729166666666667 13.2  0.494791666666667 13.0911458333333  0.296875 12.8734375  C 0.0989583333333333 12.6557291666667  0 12.3979166666667  0 12.1  L 0 9.9  C 0 9.60208333333333  0.0989583333333333 9.34427083333333  0.296875 9.1265625  C 0.494791666666667 8.90885416666667  0.729166666666667 8.8  1 9  L 23 9  C 23.2708333333333 8.8  23.5052083333333 8.90885416666667  23.703125 9.1265625  Z M 23.703125 0.326562500000001  C 23.9010416666667 0.544270833333332  24 0.802083333333332  24 1.1  L 24 3.3  C 24 3.59791666666666  23.9010416666667 3.85572916666666  23.703125 4.0734375  C 23.5052083333333 4.29114583333333  23.2708333333333 4.4  23 4.4  L 1 4.4  C 0.729166666666667 4.4  0.494791666666667 4.29114583333333  0.296875 4.0734375  C 0.0989583333333333 3.85572916666666  0 3.59791666666666  0 3.3  L 0 1.1  C 0 0.802083333333332  0.0989583333333333 0.544270833333332  0.296875 0.326562500000001  C 0.494791666666667 0.108854166666665  0.729166666666667 0  1 0  L 23 0  C 23.2708333333333 0  23.5052083333333 0.108854166666665  23.703125 0.326562500000001  Z " fill-rule="nonzero" fill="#ffffff" stroke="none" fill-opacity="0.996078431372549" transform="matrix(1 0 0 1 435 58 )" />
  </g>
</svg>