<?xml version="1.0" encoding="utf-8"?>
<svg version="1.1" xmlns:xlink="http://www.w3.org/1999/xlink" width="22px" height="24px" xmlns="http://www.w3.org/2000/svg">
  <g transform="matrix(1 0 0 1 -24 -15 )">
    <path d="M 13.4921875 14.71875  C 14.6512419871795 13.4543269230769  15.2307692307692 11.9326923076923  15.2307692307692 10.1538461538462  C 15.2307692307692 8.375  14.6512419871795 6.85336538461538  13.4921875 5.58894230769231  C 12.3331330128205 4.32451923076923  10.9383012820513 3.69230769230769  9.30769230769231 3.69230769230769  C 7.67708333333333 3.69230769230769  6.2822516025641 4.32451923076923  5.12319711538462 5.58894230769231  C 3.96414262820513 6.85336538461538  3.38461538461539 8.375  3.38461538461539 10.1538461538462  C 3.38461538461539 11.9326923076923  3.96414262820513 13.4543269230769  5.12319711538462 14.71875  C 6.2822516025641 15.9831730769231  7.67708333333333 16.6153846153846  9.30769230769231 16.6153846153846  C 10.9383012820513 16.6153846153846  12.3331330128205 15.9831730769231  13.4921875 14.71875  Z M 21.5108173076923 20.8557692307692  C 21.8369391025641 21.2115384615385  22 21.6442307692308  22 22.1538461538462  C 22 22.6538461538462  21.8325320512821 23.0865384615385  21.4975961538462 23.4519230769231  C 21.1626602564103 23.8173076923077  20.7660256410256 24  20.3076923076923 24  C 19.8317307692308 24  19.4350961538462 23.8173076923077  19.1177884615385 23.4519230769231  L 14.5829326923077 18.5192307692308  C 13.0052083333333 19.7115384615385  11.2467948717949 20.3076923076923  9.30769230769231 20.3076923076923  C 8.04727564102564 20.3076923076923  6.84194711538462 20.0408653846154  5.69170673076923 19.5072115384615  C 4.54146634615385 18.9735576923077  3.54987980769231 18.2524038461538  2.71694711538462 17.34375  C 1.88401442307692 16.4350961538462  1.22295673076923 15.3533653846154  0.733774038461538 14.0985576923077  C 0.244591346153846 12.84375  0 11.5288461538462  0 10.1538461538462  C 0 8.77884615384615  0.244591346153846 7.46394230769231  0.733774038461538 6.20913461538462  C 1.22295673076923 4.95432692307692  1.88401442307692 3.87259615384616  2.71694711538462 2.96394230769231  C 3.54987980769231 2.05528846153846  4.54146634615385 1.33413461538461  5.69170673076923 0.80048076923077  C 6.84194711538462 0.266826923076922  8.04727564102564 0  9.30769230769231 0  C 10.568108974359 0  11.7734375 0.266826923076922  12.9236778846154 0.80048076923077  C 14.0739182692308 1.33413461538461  15.0655048076923 2.05528846153846  15.8984375 2.96394230769231  C 16.7313701923077 3.87259615384616  17.3924278846154 4.95432692307692  17.8816105769231 6.20913461538462  C 18.3707932692308 7.46394230769231  18.6153846153846 8.77884615384615  18.6153846153846 10.1538461538462  C 18.6153846153846 12.2692307692308  18.0689102564103 14.1875  16.9759615384615 15.9086538461538  L 21.5108173076923 20.8557692307692  Z " fill-rule="nonzero" fill="#b9b4b4" stroke="none" transform="matrix(1 0 0 1 24 15 )" />
  </g>
</svg>