<?xml version="1.0" encoding="utf-8"?>
<svg version="1.1" xmlns:xlink="http://www.w3.org/1999/xlink" width="32px" height="26px" xmlns="http://www.w3.org/2000/svg">
  <g transform="matrix(1 0 0 1 -568 -13 )">
    <path d="M 12.6083333333333 11.8203125  C 13.5472222222222 10.9401041666667  14.6777777777778 10.5  16 10.5  C 17.3222222222222 10.5  18.4527777777778 10.9401041666667  19.3916666666667 11.8203125  C 20.3305555555556 12.7005208333333  20.8 13.7604166666667  20.8 15  C 20.8 16.2395833333333  20.3305555555556 17.2994791666667  19.3916666666667 18.1796875  C 18.4527777777778 19.0598958333333  17.3222222222222 19.5  16 19.5  C 14.6777777777778 19.5  13.5472222222222 19.0598958333333  12.6083333333333 18.1796875  C 11.6694444444444 17.2994791666667  11.2 16.2395833333333  11.2 15  C 11.2 13.7604166666667  11.6694444444444 12.7005208333333  12.6083333333333 11.8203125  Z M 24 4  L 27.7333333333333 4  C 28.9111111111111 4  29.9166666666667 4.390625  30.75 5.171875  C 31.5833333333333 5.953125  32 6.89583333333333  32 8  L 32 22  C 32 23.1041666666667  31.5833333333333 24.046875  30.75 24.828125  C 29.9166666666667 25.609375  28.9111111111111 26  27.7333333333333 26  L 4.26666666666667 26  C 3.08888888888889 26  2.08333333333333 25.609375  1.25 24.828125  C 0.416666666666667 24.046875  0 23.1041666666667  0 22  L 0 8  C 0 6.89583333333333  0.416666666666667 5.953125  1.25 5.171875  C 2.08333333333333 4.390625  3.08888888888889 4  4.26666666666667 4  L 8 4  L 8.85 1.875  C 9.06111111111111 1.36458333333333  9.44722222222222 0.924479166666665  10.0083333333333 0.554687499999999  C 10.5694444444444 0.184895833333336  11.1444444444444 0  11.7333333333333 0  L 20.2666666666667 0  C 20.8555555555556 0  21.4305555555556 0.184895833333336  21.9916666666667 0.554687499999999  C 22.5527777777778 0.924479166666665  22.9388888888889 1.36458333333333  23.15 1.875  L 24 4  Z M 10.725 19.9453125  C 12.1861111111111 21.3151041666667  13.9444444444444 22  16 22  C 18.0555555555556 22  19.8138888888889 21.3151041666667  21.275 19.9453125  C 22.7361111111111 18.5755208333333  23.4666666666667 16.9270833333333  23.4666666666667 15  C 23.4666666666667 13.0729166666667  22.7361111111111 11.4244791666667  21.275 10.0546875  C 19.8138888888889 8.68489583333333  18.0555555555556 8  16 8  C 13.9444444444444 8  12.1861111111111 8.68489583333333  10.725 10.0546875  C 9.26388888888889 11.4244791666667  8.53333333333333 13.0729166666667  8.53333333333333 15  C 8.53333333333333 16.9270833333333  9.26388888888889 18.5755208333333  10.725 19.9453125  Z " fill-rule="nonzero" fill="#b9b4b4" stroke="none" transform="matrix(1 0 0 1 568 13 )" />
  </g>
</svg>