<?xml version="1.0" encoding="utf-8"?>
<svg version="1.1" xmlns:xlink="http://www.w3.org/1999/xlink" width="13px" height="14px" xmlns="http://www.w3.org/2000/svg">
  <g transform="matrix(1 0 0 1 -258 -420 )">
    <path d="M 264.5 420  C 268.14 420  271 423.08  271 427  C 271 430.92  268.14 434  264.5 434  C 260.86 434  258 430.92  258 427  C 258 423.08  260.86 420  264.5 420  Z " fill-rule="nonzero" fill="#e3e2e2" stroke="none" fill-opacity="0.764705882352941" />
    <path d="M 264.5 420.5  C 267.86 420.5  270.5 423.36  270.5 427  C 270.5 430.64  267.86 433.5  264.5 433.5  C 261.14 433.5  258.5 430.64  258.5 427  C 258.5 423.36  261.14 420.5  264.5 420.5  Z " stroke-width="1" stroke="#797979" fill="none" />
  </g>
</svg>